<svg width="104" height="104" viewBox="0 0 104 104" fill="none" xmlns="http://www.w3.org/2000/svg">
<path d="M42.6661 90.8687L23.6944 78.9005C15.8889 73.9764 11.9861 71.5144 11.1858 67.4688C10.3856 63.4232 13.031 59.5292 18.3218 51.7412L37.2935 23.8154C43.9536 14.0119 47.2836 9.11011 51.9034 9.11011C56.5232 9.11011 59.8532 14.0119 66.5133 23.8154L85.485 51.7412C90.7759 59.5292 93.4213 63.4232 92.621 67.4688C91.8207 71.5144 87.9179 73.9764 80.1124 78.9005L61.1408 90.8687C56.6402 93.7079 54.3899 95.1275 51.9034 95.1275C49.4169 95.1275 47.1666 93.7079 42.6661 90.8687Z" stroke="#8E3200" stroke-width="6.55146" stroke-linecap="round" stroke-linejoin="round"/>
<path d="M51.9034 9.11011L60.5051 60.7205M90.6112 67.4688L60.5051 60.7205M51.9034 95.1275L60.5051 60.7205M13.1956 67.4688L60.5051 60.7205" stroke="#8E3200" stroke-width="6.55146" stroke-linecap="round" stroke-linejoin="round"/>
</svg>
