<svg width="51" height="50" viewBox="0 0 51 50" fill="none" xmlns="http://www.w3.org/2000/svg">
<path d="M41.6295 36.4408L43.3989 37.3781C44.6402 38.0357 45.2608 38.3644 45.8371 37.9857C46.4135 37.607 46.3691 37.0129 46.2803 35.8248C45.77 28.9996 37.3181 24.3192 31.473 28.9254M32.2826 36.4408L30.5132 35.5034C29.2729 34.8464 28.6528 34.5179 28.0758 34.8991C27.4987 35.2803 27.5459 35.8725 27.6403 37.0569C28.1796 43.825 36.5834 48.5696 42.284 44.0655" stroke="#FFAD45" stroke-width="4" stroke-linecap="round" stroke-linejoin="round"/>
<path d="M23.4387 45.8335C12.8985 44.7857 4.6665 35.8813 4.6665 25.0517C4.6665 13.5173 14.0049 4.16683 25.5245 4.16683C36.5581 4.16683 45.5908 12.7451 46.3332 23.6043" stroke="#FFAD45" stroke-width="4" stroke-linecap="round"/>
<path d="M42.1663 11.873C40.219 12.0133 37.7248 12.7672 35.9953 15.0059C32.8715 19.0493 29.7476 19.3867 27.6651 18.0389C24.5412 16.0172 27.1664 12.7425 23.4999 10.9629C21.1104 9.80304 20.7772 6.64686 22.1071 4.16675" stroke="#FFAD45" stroke-width="4" stroke-linejoin="round"/>
<path d="M4.6665 22.9167C6.25504 24.2962 8.47996 25.5588 11.1014 25.5588C16.5174 25.5588 17.6006 26.5936 17.6006 30.733C17.6006 34.8723 17.6006 34.8723 18.6838 37.9768C19.3884 39.9962 19.6347 42.0155 18.2303 43.7501" stroke="#FFAD45" stroke-width="4" stroke-linejoin="round"/>
</svg>
