<svg width="76" height="78" viewBox="0 0 76 78" fill="none" xmlns="http://www.w3.org/2000/svg">
<rect width="76" height="78" rx="10" fill="#F5CCA0"/>
<path d="M53.6295 50.4406L55.3989 51.378C56.6402 52.0355 57.2608 52.3642 57.8371 51.9855C58.4135 51.6068 58.3691 51.0128 58.2803 49.8246C57.77 42.9994 49.3181 38.319 43.473 42.9252M44.2826 50.4406L42.5132 49.5032C41.2729 48.8462 40.6528 48.5177 40.0758 48.8989C39.4987 49.2801 39.5459 49.8723 39.6403 51.0567C40.1796 57.8248 48.5834 62.5694 54.284 58.0654" stroke="#8E3200" stroke-width="4" stroke-linecap="round" stroke-linejoin="round"/>
<path d="M35.4387 59.8333C24.8985 58.7855 16.6665 49.8811 16.6665 39.0515C16.6665 27.5171 26.0049 18.1666 37.5245 18.1666C48.5581 18.1666 57.5908 26.745 58.3332 37.6042" stroke="#8E3200" stroke-width="4" stroke-linecap="round"/>
<path d="M54.1663 25.8729C52.219 26.0132 49.7248 26.7672 47.9953 29.0058C44.8715 33.0492 41.7476 33.3866 39.6651 32.0388C36.5412 30.0171 39.1664 26.7424 35.4999 24.9628C33.1104 23.8029 32.7772 20.6468 34.1071 18.1667" stroke="#8E3200" stroke-width="4" stroke-linejoin="round"/>
<path d="M16.6665 36.9167C18.255 38.2961 20.48 39.5587 23.1014 39.5587C28.5174 39.5587 29.6006 40.5936 29.6006 44.7329C29.6006 48.8722 29.6006 48.8722 30.6838 51.9767C31.3884 53.9961 31.6347 56.0154 30.2303 57.75" stroke="#8E3200" stroke-width="4" stroke-linejoin="round"/>
</svg>
