<svg width="76" height="78" viewBox="0 0 76 78" fill="none" xmlns="http://www.w3.org/2000/svg">
<rect width="76" height="78" rx="10" fill="#F5CCA0"/>
<path d="M37.4998 18.1667C30.6252 18.1667 27.1879 18.1667 25.0522 20.3023C22.9165 22.438 22.9165 25.8753 22.9165 32.75V45.25C22.9165 52.1246 22.9165 55.562 25.0522 57.6976C27.1879 59.8333 30.6252 59.8333 37.4998 59.8333C44.3745 59.8333 47.8118 59.8333 49.9475 57.6976C52.0832 55.562 52.0832 52.1246 52.0832 45.25V43.1667" stroke="#8E3200" stroke-width="4" stroke-linecap="round"/>
<path d="M43.9171 36.6193L43.1058 38.4474L43.1058 38.4474L43.9171 36.6193ZM41.944 34.5053L40.0786 35.2264L40.0786 35.2264L41.944 34.5053ZM55.9723 34.5053L57.8378 35.2264L57.8378 35.2264L55.9723 34.5053ZM53.9992 36.6193L54.8105 38.4474L54.8105 38.4474L53.9992 36.6193ZM53.9992 25.4953L54.8105 23.6672L54.8105 23.6672L53.9992 25.4953ZM55.9723 27.6093L57.8378 26.8881L57.8378 26.8881L55.9723 27.6093ZM43.9171 25.4953L43.1058 23.6672L43.1058 23.6672L43.9171 25.4953ZM41.944 27.6093L40.0786 26.8881L40.0786 26.8881L41.944 27.6093ZM43.3123 25.1979C43.3123 26.3025 44.2078 27.1979 45.3123 27.1979C46.4169 27.1979 47.3123 26.3025 47.3123 25.1979H43.3123ZM50.604 25.1979C50.604 26.3025 51.4994 27.1979 52.604 27.1979C53.7086 27.1979 54.604 26.3025 54.604 25.1979H50.604ZM47.1353 27.1979H50.7811V23.1979H47.1353V27.1979ZM50.7811 34.9167H47.1353V38.9167H50.7811V34.9167ZM47.1353 34.9167C46.2566 34.9167 45.7049 34.9154 45.2862 34.8848C44.8885 34.8557 44.766 34.8079 44.7284 34.7912L43.1058 38.4474C43.7383 38.728 44.3755 38.8289 44.9946 38.8742C45.5928 38.9179 46.3152 38.9167 47.1353 38.9167V34.9167ZM39.6665 31.0573C39.6665 31.9418 39.6656 32.6986 39.7052 33.3217C39.7459 33.9603 39.835 34.5965 40.0786 35.2264L43.8095 33.7841C43.7755 33.6962 43.7259 33.5185 43.6972 33.0675C43.6674 32.6011 43.6665 31.9929 43.6665 31.0573H39.6665ZM44.7284 34.7913C44.3454 34.6213 43.9991 34.2747 43.8095 33.7841L40.0786 35.2264C40.629 36.6501 41.7022 37.8244 43.1058 38.4474L44.7284 34.7913ZM54.2498 31.0573C54.2498 31.9929 54.2489 32.6011 54.2192 33.0675C54.1905 33.5185 54.1408 33.6962 54.1069 33.7841L57.8378 35.2264C58.0813 34.5965 58.1704 33.9603 58.2111 33.3217C58.2508 32.6986 58.2498 31.9418 58.2498 31.0573H54.2498ZM50.7811 38.9167C51.6012 38.9167 52.3235 38.9179 52.9217 38.8742C53.5409 38.8289 54.1781 38.728 54.8105 38.4474L53.1879 34.7912C53.1503 34.8079 53.0279 34.8557 52.6301 34.8848C52.2115 34.9154 51.6598 34.9167 50.7811 34.9167V38.9167ZM54.1069 33.7841C53.9172 34.2747 53.5709 34.6213 53.1879 34.7913L54.8105 38.4474C56.2142 37.8244 57.2874 36.6501 57.8378 35.2264L54.1069 33.7841ZM50.7811 27.1979C51.6598 27.1979 52.2115 27.1991 52.6301 27.2298C53.0279 27.2588 53.1503 27.3066 53.1879 27.3233L54.8105 23.6672C54.1781 23.3865 53.5409 23.2857 52.9217 23.2404C52.3235 23.1967 51.6012 23.1979 50.7811 23.1979V27.1979ZM58.2498 31.0573C58.2498 30.1728 58.2508 29.4159 58.2111 28.7929C58.1704 28.1543 58.0813 27.5181 57.8378 26.8881L54.1069 28.3305C54.1408 28.4184 54.1905 28.5961 54.2192 29.0471C54.2489 29.5135 54.2498 30.1217 54.2498 31.0573H58.2498ZM53.1879 27.3233C53.5709 27.4933 53.9172 27.8399 54.1069 28.3305L57.8378 26.8881C57.2874 25.4644 56.2142 24.2901 54.8105 23.6672L53.1879 27.3233ZM47.1353 23.1979C46.3152 23.1979 45.5928 23.1967 44.9946 23.2404C44.3755 23.2857 43.7383 23.3865 43.1058 23.6672L44.7284 27.3233C44.766 27.3066 44.8885 27.2588 45.2862 27.2298C45.7049 27.1991 46.2566 27.1979 47.1353 27.1979V23.1979ZM43.6665 31.0573C43.6665 30.1217 43.6674 29.5135 43.6972 29.0471C43.7259 28.5961 43.7755 28.4184 43.8095 28.3305L40.0786 26.8881C39.835 27.5181 39.7459 28.1543 39.7052 28.7929C39.6656 29.4159 39.6665 30.1728 39.6665 31.0573H43.6665ZM43.1058 23.6672C41.7022 24.2901 40.629 25.4644 40.0786 26.8881L43.8095 28.3305C43.9991 27.8399 44.3454 27.4933 44.7284 27.3233L43.1058 23.6672ZM47.3123 25.1979V21.6823H43.3123V25.1979H47.3123ZM50.604 21.6823V25.1979H54.604V21.6823H50.604ZM48.9582 20.1667C49.9363 20.1667 50.604 20.9132 50.604 21.6823H54.604C54.604 18.5682 52.0071 16.1667 48.9582 16.1667V20.1667ZM47.3123 21.6823C47.3123 20.9132 47.98 20.1667 48.9582 20.1667V16.1667C45.9092 16.1667 43.3123 18.5682 43.3123 21.6823H47.3123Z" fill="#8E3200"/>
<path d="M35.4165 53.5833H39.5832" stroke="#8E3200" stroke-width="4" stroke-linecap="round" stroke-linejoin="round"/>
</svg>
