<svg width="76" height="78" viewBox="0 0 76 78" fill="none" xmlns="http://www.w3.org/2000/svg">
<rect width="76" height="78" rx="10" fill="#F5CCA0"/>
<rect x="13.5" y="14.5" width="49" height="49" rx="9.5" stroke="#8E3200"/>
<path d="M17.1665 36.9167C22.0242 31.8288 28.9232 31.5892 33.8332 36.9167M30.6979 23.375C30.6979 26.2515 28.3628 28.5833 25.4822 28.5833C22.6016 28.5833 20.2664 26.2515 20.2664 23.375C20.2664 20.4985 22.6016 18.1667 25.4822 18.1667C28.3628 18.1667 30.6979 20.4985 30.6979 23.375Z" stroke="#8E3200" stroke-width="4" stroke-linecap="round"/>
<path d="M42.1665 59.8333C47.0242 54.7455 53.9232 54.5059 58.8332 59.8333M55.6979 46.2917C55.6979 49.1682 53.3628 51.5 50.4822 51.5C47.6016 51.5 45.2664 49.1682 45.2664 46.2917C45.2664 43.4152 47.6016 41.0833 50.4822 41.0833C53.3628 41.0833 55.6979 43.4152 55.6979 46.2917Z" stroke="#8E3200" stroke-width="4" stroke-linecap="round"/>
<path d="M19.25 43.1667C19.25 51.2292 25.7708 57.75 33.8333 57.75L31.75 53.5833" stroke="#8E3200" stroke-width="4" stroke-linecap="round" stroke-linejoin="round"/>
<path d="M44.25 20.25H56.75M44.25 26.5H56.75M44.25 32.75H51.5417" stroke="#8E3200" stroke-width="4" stroke-linecap="round" stroke-linejoin="round"/>
</svg>
