<svg width="51" height="50" viewBox="0 0 51 50" fill="none" xmlns="http://www.w3.org/2000/svg">
<path d="M25.4998 4.16675C18.6252 4.16675 15.1879 4.16675 13.0522 6.30243C10.9165 8.43811 10.9165 11.8754 10.9165 18.7501V31.2501C10.9165 38.1247 10.9165 41.5621 13.0522 43.6977C15.1879 45.8334 18.6252 45.8334 25.4998 45.8334C32.3745 45.8334 35.8118 45.8334 37.9475 43.6977C40.0832 41.5621 40.0832 38.1247 40.0832 31.2501V29.1667" stroke="#FFAD45" stroke-width="4" stroke-linecap="round"/>
<path d="M31.9171 22.6194L31.1058 24.4475L31.1058 24.4475L31.9171 22.6194ZM29.944 20.5054L28.0786 21.2265L28.0786 21.2265L29.944 20.5054ZM43.9723 20.5054L45.8378 21.2265L45.8378 21.2265L43.9723 20.5054ZM41.9992 22.6194L42.8105 24.4475L42.8105 24.4475L41.9992 22.6194ZM41.9992 11.4953L42.8105 9.66728L42.8105 9.66728L41.9992 11.4953ZM43.9723 13.6094L45.8378 12.8882L45.8378 12.8882L43.9723 13.6094ZM31.9171 11.4953L31.1058 9.66728L31.1058 9.66728L31.9171 11.4953ZM29.944 13.6094L28.0786 12.8882L28.0786 12.8882L29.944 13.6094ZM31.3123 11.198C31.3123 12.3026 32.2078 13.198 33.3123 13.198C34.4169 13.198 35.3123 12.3026 35.3123 11.198H31.3123ZM38.604 11.198C38.604 12.3026 39.4994 13.198 40.604 13.198C41.7086 13.198 42.604 12.3026 42.604 11.198L38.604 11.198ZM35.1353 13.198L38.7811 13.198V9.198H35.1353V13.198ZM38.7811 20.9167H35.1353V24.9167H38.7811V20.9167ZM35.1353 20.9167C34.2566 20.9167 33.7049 20.9155 33.2862 20.8849C32.8885 20.8558 32.766 20.808 32.7284 20.7913L31.1058 24.4475C31.7383 24.7281 32.3755 24.829 32.9946 24.8743C33.5928 24.918 34.3152 24.9167 35.1353 24.9167V20.9167ZM27.6665 17.0574C27.6665 17.9419 27.6656 18.6987 27.7052 19.3218C27.7459 19.9604 27.835 20.5966 28.0786 21.2265L31.8095 19.7842C31.7755 19.6963 31.7259 19.5185 31.6972 19.0676C31.6674 18.6012 31.6665 17.993 31.6665 17.0574H27.6665ZM32.7284 20.7913C32.3454 20.6214 31.9991 20.2748 31.8095 19.7842L28.0786 21.2265C28.629 22.6502 29.7022 23.8245 31.1058 24.4475L32.7284 20.7913ZM42.2498 17.0574C42.2498 17.993 42.2489 18.6012 42.2192 19.0676C42.1905 19.5185 42.1408 19.6963 42.1069 19.7842L45.8378 21.2265C46.0813 20.5966 46.1704 19.9604 46.2111 19.3218C46.2508 18.6987 46.2498 17.9419 46.2498 17.0574H42.2498ZM38.7811 24.9167C39.6012 24.9167 40.3235 24.918 40.9217 24.8743C41.5409 24.829 42.1781 24.7281 42.8105 24.4475L41.1879 20.7913C41.1503 20.808 41.0279 20.8558 40.6301 20.8849C40.2115 20.9155 39.6598 20.9167 38.7811 20.9167V24.9167ZM42.1069 19.7842C41.9172 20.2748 41.5709 20.6214 41.1879 20.7913L42.8105 24.4475C44.2142 23.8245 45.2874 22.6502 45.8378 21.2265L42.1069 19.7842ZM38.7811 13.198C39.6598 13.198 40.2115 13.1992 40.6301 13.2298C41.0279 13.2589 41.1503 13.3067 41.1879 13.3234L42.8105 9.66728C42.1781 9.38662 41.5409 9.28575 40.9217 9.24049C40.3235 9.19676 39.6012 9.198 38.7811 9.198V13.198ZM46.2498 17.0574C46.2498 16.1729 46.2508 15.416 46.2111 14.7929C46.1704 14.1544 46.0813 13.5182 45.8378 12.8882L42.1069 14.3306C42.1408 14.4185 42.1905 14.5962 42.2192 15.0472C42.2489 15.5136 42.2498 16.1218 42.2498 17.0574H46.2498ZM41.1879 13.3234C41.5709 13.4934 41.9172 13.84 42.1069 14.3306L45.8378 12.8882C45.2874 11.4645 44.2142 10.2902 42.8105 9.66728L41.1879 13.3234ZM35.1353 9.198C34.3152 9.198 33.5928 9.19676 32.9946 9.24049C32.3755 9.28575 31.7383 9.38662 31.1058 9.66728L32.7284 13.3234C32.766 13.3067 32.8885 13.2589 33.2862 13.2298C33.7049 13.1992 34.2566 13.198 35.1353 13.198V9.198ZM31.6665 17.0574C31.6665 16.1218 31.6674 15.5136 31.6972 15.0472C31.7259 14.5962 31.7755 14.4185 31.8095 14.3306L28.0786 12.8882C27.835 13.5182 27.7459 14.1544 27.7052 14.7929C27.6656 15.416 27.6665 16.1729 27.6665 17.0574H31.6665ZM31.1058 9.66728C29.7022 10.2902 28.629 11.4645 28.0786 12.8882L31.8095 14.3306C31.9991 13.84 32.3454 13.4934 32.7284 13.3234L31.1058 9.66728ZM35.3123 11.198V7.68237L31.3123 7.68237V11.198H35.3123ZM38.604 7.68237V11.198L42.604 11.198V7.68237L38.604 7.68237ZM36.9582 6.16675C37.9363 6.16675 38.604 6.91325 38.604 7.68237L42.604 7.68237C42.604 4.56824 40.0071 2.16675 36.9582 2.16675V6.16675ZM35.3123 7.68237C35.3123 6.91325 35.98 6.16675 36.9582 6.16675V2.16675C33.9092 2.16675 31.3123 4.56824 31.3123 7.68237L35.3123 7.68237Z" fill="#FFAD45"/>
<path d="M23.4165 39.5835H27.5832" stroke="#FFAD45" stroke-width="4" stroke-linecap="round" stroke-linejoin="round"/>
</svg>
