<svg width="191" height="191" viewBox="0 0 191 191" fill="none" xmlns="http://www.w3.org/2000/svg">
<g clip-path="url(#clip0_839_2135)">
<path d="M190.715 0H0V190.715H190.715V0Z" fill="white"/>
<path d="M30.993 24.2178H24.2178V30.993H30.993V24.2178Z" fill="black"/>
<path d="M37.7682 24.2178H30.993V30.993H37.7682V24.2178Z" fill="black"/>
<path d="M44.5434 24.2178H37.7682V30.993H44.5434V24.2178Z" fill="black"/>
<path d="M51.3187 24.2178H44.5434V30.993H51.3187V24.2178Z" fill="black"/>
<path d="M58.0939 24.2178H51.3187V30.993H58.0939V24.2178Z" fill="black"/>
<path d="M64.8691 24.2178H58.0939V30.993H64.8691V24.2178Z" fill="black"/>
<path d="M71.6443 24.2178H64.8691V30.993H71.6443V24.2178Z" fill="black"/>
<path d="M85.1948 24.2178H78.4195V30.993H85.1948V24.2178Z" fill="black"/>
<path d="M91.97 24.2178H85.1948V30.993H91.97V24.2178Z" fill="black"/>
<path d="M98.7452 24.2178H91.97V30.993H98.7452V24.2178Z" fill="black"/>
<path d="M112.296 24.2178H105.52V30.993H112.296V24.2178Z" fill="black"/>
<path d="M125.846 24.2178H119.071V30.993H125.846V24.2178Z" fill="black"/>
<path d="M132.621 24.2178H125.846V30.993H132.621V24.2178Z" fill="black"/>
<path d="M139.397 24.2178H132.621V30.993H139.397V24.2178Z" fill="black"/>
<path d="M146.172 24.2178H139.397V30.993H146.172V24.2178Z" fill="black"/>
<path d="M152.947 24.2178H146.172V30.993H152.947V24.2178Z" fill="black"/>
<path d="M159.722 24.2178H152.947V30.993H159.722V24.2178Z" fill="black"/>
<path d="M166.497 24.2178H159.722V30.993H166.497V24.2178Z" fill="black"/>
<path d="M30.993 30.993H24.2178V37.7682H30.993V30.993Z" fill="black"/>
<path d="M71.6443 30.993H64.8691V37.7682H71.6443V30.993Z" fill="black"/>
<path d="M98.7452 30.993H91.97L91.97 37.7682H98.7452V30.993Z" fill="black"/>
<path d="M125.846 30.993H119.071V37.7682H125.846V30.993Z" fill="black"/>
<path d="M166.497 30.993H159.722V37.7682H166.497V30.993Z" fill="black"/>
<path d="M30.993 37.7682H24.2178V44.5434H30.993V37.7682Z" fill="black"/>
<path d="M44.5434 37.7682H37.7682V44.5434H44.5434V37.7682Z" fill="black"/>
<path d="M51.3187 37.7682H44.5434V44.5434H51.3187V37.7682Z" fill="black"/>
<path d="M58.0939 37.7682H51.3187V44.5434H58.0939V37.7682Z" fill="black"/>
<path d="M71.6443 37.7682H64.8691V44.5434H71.6443V37.7682Z" fill="black"/>
<path d="M105.52 37.7682H98.7452L98.7452 44.5434H105.52V37.7682Z" fill="black"/>
<path d="M112.296 37.7682H105.52V44.5434H112.296V37.7682Z" fill="black"/>
<path d="M125.846 37.7682H119.071V44.5434H125.846V37.7682Z" fill="black"/>
<path d="M139.397 37.7682H132.621V44.5434H139.397V37.7682Z" fill="black"/>
<path d="M146.172 37.7682H139.397V44.5434H146.172V37.7682Z" fill="black"/>
<path d="M152.947 37.7682H146.172V44.5434H152.947V37.7682Z" fill="black"/>
<path d="M166.497 37.7682H159.722V44.5434H166.497V37.7682Z" fill="black"/>
<path d="M30.993 44.5434H24.2178V51.3187H30.993V44.5434Z" fill="black"/>
<path d="M44.5434 44.5434H37.7682V51.3187H44.5434V44.5434Z" fill="black"/>
<path d="M51.3187 44.5434H44.5434V51.3187H51.3187V44.5434Z" fill="black"/>
<path d="M58.0939 44.5434H51.3187V51.3187H58.0939V44.5434Z" fill="black"/>
<path d="M71.6443 44.5434H64.8691V51.3187H71.6443V44.5434Z" fill="black"/>
<path d="M91.97 44.5434H85.1948V51.3187H91.97V44.5434Z" fill="black"/>
<path d="M98.7452 44.5434H91.97V51.3187H98.7452L98.7452 44.5434Z" fill="black"/>
<path d="M105.52 44.5434H98.7452L98.7452 51.3187H105.52V44.5434Z" fill="black"/>
<path d="M112.296 44.5434H105.52V51.3187H112.296V44.5434Z" fill="black"/>
<path d="M125.846 44.5434H119.071V51.3187H125.846V44.5434Z" fill="black"/>
<path d="M139.397 44.5434H132.621V51.3187H139.397V44.5434Z" fill="black"/>
<path d="M146.172 44.5434H139.397V51.3187H146.172V44.5434Z" fill="black"/>
<path d="M152.947 44.5434H146.172V51.3187H152.947V44.5434Z" fill="black"/>
<path d="M166.497 44.5434H159.722V51.3187H166.497V44.5434Z" fill="black"/>
<path d="M30.993 51.3187H24.2178V58.0939H30.993V51.3187Z" fill="black"/>
<path d="M44.5434 51.3187H37.7682V58.0939H44.5434V51.3187Z" fill="black"/>
<path d="M51.3187 51.3187H44.5434V58.0939H51.3187V51.3187Z" fill="black"/>
<path d="M58.0939 51.3187H51.3187V58.0939H58.0939V51.3187Z" fill="black"/>
<path d="M71.6443 51.3187H64.8691V58.0939H71.6443V51.3187Z" fill="black"/>
<path d="M91.97 51.3187H85.1948V58.0939H91.97V51.3187Z" fill="black"/>
<path d="M125.846 51.3187H119.071V58.0939H125.846V51.3187Z" fill="black"/>
<path d="M139.397 51.3187H132.621V58.0939H139.397V51.3187Z" fill="black"/>
<path d="M146.172 51.3187H139.397V58.0939H146.172V51.3187Z" fill="black"/>
<path d="M152.947 51.3187H146.172V58.0939H152.947V51.3187Z" fill="black"/>
<path d="M166.497 51.3187H159.722V58.0939H166.497V51.3187Z" fill="black"/>
<path d="M30.993 58.0939H24.2178V64.8691H30.993V58.0939Z" fill="black"/>
<path d="M71.6443 58.0939H64.8691V64.8691H71.6443V58.0939Z" fill="black"/>
<path d="M112.296 58.0939H105.52V64.8691H112.296V58.0939Z" fill="black"/>
<path d="M125.846 58.0939H119.071V64.8691H125.846V58.0939Z" fill="black"/>
<path d="M166.497 58.0939H159.722V64.8691H166.497V58.0939Z" fill="black"/>
<path d="M30.993 64.8691H24.2178V71.6443H30.993V64.8691Z" fill="black"/>
<path d="M37.7682 64.8691H30.993V71.6443H37.7682V64.8691Z" fill="black"/>
<path d="M44.5434 64.8691H37.7682V71.6443H44.5434V64.8691Z" fill="black"/>
<path d="M51.3187 64.8691H44.5434V71.6443H51.3187V64.8691Z" fill="black"/>
<path d="M58.0939 64.8691H51.3187V71.6443H58.0939V64.8691Z" fill="black"/>
<path d="M64.8691 64.8691H58.0939V71.6443H64.8691V64.8691Z" fill="black"/>
<path d="M71.6443 64.8691H64.8691V71.6443H71.6443V64.8691Z" fill="black"/>
<path d="M85.1948 64.8691H78.4195V71.6443H85.1948V64.8691Z" fill="black"/>
<path d="M98.7452 64.8691H91.97V71.6443H98.7452V64.8691Z" fill="black"/>
<path d="M112.296 64.8691H105.52V71.6443H112.296V64.8691Z" fill="black"/>
<path d="M125.846 64.8691H119.071V71.6443H125.846V64.8691Z" fill="black"/>
<path d="M132.621 64.8691H125.846V71.6443H132.621V64.8691Z" fill="black"/>
<path d="M139.397 64.8691H132.621V71.6443H139.397V64.8691Z" fill="black"/>
<path d="M146.172 64.8691H139.397V71.6443H146.172V64.8691Z" fill="black"/>
<path d="M152.947 64.8691H146.172V71.6443H152.947V64.8691Z" fill="black"/>
<path d="M159.722 64.8691H152.947V71.6443H159.722V64.8691Z" fill="black"/>
<path d="M166.497 64.8691H159.722V71.6443H166.497V64.8691Z" fill="black"/>
<path d="M91.97 71.6443H85.1948L85.1948 78.4195H91.97L91.97 71.6443Z" fill="black"/>
<path d="M98.7452 71.6443H91.97L91.97 78.4195H98.7452V71.6443Z" fill="black"/>
<path d="M37.7682 78.4195H30.993V85.1948H37.7682V78.4195Z" fill="black"/>
<path d="M44.5434 78.4195H37.7682V85.1948H44.5434V78.4195Z" fill="black"/>
<path d="M51.3187 78.4195H44.5434V85.1948H51.3187V78.4195Z" fill="black"/>
<path d="M71.6443 78.4195H64.8691V85.1948H71.6443V78.4195Z" fill="black"/>
<path d="M78.4195 78.4195H71.6443V85.1948H78.4195V78.4195Z" fill="black"/>
<path d="M85.1948 78.4195L78.4195 78.4195V85.1948H85.1948L85.1948 78.4195Z" fill="black"/>
<path d="M119.071 78.4195H112.296V85.1948H119.071V78.4195Z" fill="black"/>
<path d="M166.497 78.4195H159.722V85.1948H166.497V78.4195Z" fill="black"/>
<path d="M30.993 85.1948L24.2178 85.1948V91.97H30.993V85.1948Z" fill="black"/>
<path d="M37.7682 85.1948H30.993V91.97H37.7682V85.1948Z" fill="black"/>
<path d="M51.3187 85.1948H44.5434V91.97H51.3187V85.1948Z" fill="black"/>
<path d="M58.0939 85.1948L51.3187 85.1948V91.97H58.0939V85.1948Z" fill="black"/>
<path d="M64.8691 85.1948L58.0939 85.1948V91.97H64.8691V85.1948Z" fill="black"/>
<path d="M85.1948 85.1948H78.4195L78.4195 91.97H85.1948V85.1948Z" fill="black"/>
<path d="M91.97 85.1948L85.1948 85.1948V91.97H91.97V85.1948Z" fill="black"/>
<path d="M98.7452 85.1948H91.97V91.97H98.7452V85.1948Z" fill="black"/>
<path d="M112.296 85.1948L105.52 85.1948V91.97H112.296V85.1948Z" fill="black"/>
<path d="M125.846 85.1948L119.071 85.1948V91.97H125.846V85.1948Z" fill="black"/>
<path d="M132.621 85.1948H125.846V91.97H132.621V85.1948Z" fill="black"/>
<path d="M139.397 85.1948H132.621V91.97H139.397V85.1948Z" fill="black"/>
<path d="M146.172 85.1948H139.397V91.97H146.172V85.1948Z" fill="black"/>
<path d="M159.722 85.1948L152.947 85.1948V91.97H159.722V85.1948Z" fill="black"/>
<path d="M51.3187 91.97H44.5434V98.7452H51.3187V91.97Z" fill="black"/>
<path d="M58.0939 91.97H51.3187V98.7452H58.0939V91.97Z" fill="black"/>
<path d="M71.6443 91.97L64.8691 91.97V98.7452H71.6443V91.97Z" fill="black"/>
<path d="M78.4195 91.97L71.6443 91.97V98.7452H78.4195L78.4195 91.97Z" fill="black"/>
<path d="M105.52 91.97H98.7452L98.7452 98.7452H105.52V91.97Z" fill="black"/>
<path d="M112.296 91.97H105.52V98.7452H112.296V91.97Z" fill="black"/>
<path d="M132.621 91.97H125.846V98.7452H132.621V91.97Z" fill="black"/>
<path d="M139.397 91.97H132.621V98.7452H139.397V91.97Z" fill="black"/>
<path d="M152.947 91.97H146.172V98.7452H152.947V91.97Z" fill="black"/>
<path d="M166.497 91.97L159.722 91.97V98.7452H166.497V91.97Z" fill="black"/>
<path d="M30.993 98.7452H24.2178V105.52H30.993V98.7452Z" fill="black"/>
<path d="M37.7682 98.7452H30.993V105.52H37.7682V98.7452Z" fill="black"/>
<path d="M58.0939 98.7452H51.3187V105.52H58.0939V98.7452Z" fill="black"/>
<path d="M78.4195 98.7452H71.6443V105.52H78.4195V98.7452Z" fill="black"/>
<path d="M98.7452 98.7452L91.97 98.7452V105.52H98.7452L98.7452 98.7452Z" fill="black"/>
<path d="M119.071 98.7452L112.296 98.7452V105.52H119.071V98.7452Z" fill="black"/>
<path d="M132.621 98.7452H125.846V105.52H132.621V98.7452Z" fill="black"/>
<path d="M166.497 98.7452H159.722V105.52H166.497V98.7452Z" fill="black"/>
<path d="M51.3187 105.52H44.5434V112.296H51.3187V105.52Z" fill="black"/>
<path d="M58.0939 105.52H51.3187V112.296H58.0939V105.52Z" fill="black"/>
<path d="M64.8691 105.52H58.0939V112.296H64.8691V105.52Z" fill="black"/>
<path d="M71.6443 105.52H64.8691V112.296H71.6443V105.52Z" fill="black"/>
<path d="M78.4195 105.52H71.6443V112.296H78.4195V105.52Z" fill="black"/>
<path d="M85.1948 105.52H78.4195V112.296H85.1948V105.52Z" fill="black"/>
<path d="M91.97 105.52H85.1948V112.296H91.97L91.97 105.52Z" fill="black"/>
<path d="M119.071 105.52H112.296V112.296H119.071V105.52Z" fill="black"/>
<path d="M125.846 105.52H119.071V112.296H125.846V105.52Z" fill="black"/>
<path d="M132.621 105.52H125.846V112.296H132.621V105.52Z" fill="black"/>
<path d="M139.397 105.52H132.621V112.296H139.397V105.52Z" fill="black"/>
<path d="M146.172 105.52H139.397V112.296H146.172V105.52Z" fill="black"/>
<path d="M85.1948 112.296H78.4195L78.4195 119.071H85.1948V112.296Z" fill="black"/>
<path d="M112.296 112.296H105.52V119.071H112.296V112.296Z" fill="black"/>
<path d="M119.071 112.296H112.296V119.071H119.071V112.296Z" fill="black"/>
<path d="M132.621 112.296H125.846V119.071H132.621V112.296Z" fill="black"/>
<path d="M166.497 112.296H159.722V119.071H166.497V112.296Z" fill="black"/>
<path d="M30.993 119.071H24.2178V125.846H30.993V119.071Z" fill="black"/>
<path d="M37.7682 119.071H30.993V125.846H37.7682V119.071Z" fill="black"/>
<path d="M44.5434 119.071H37.7682V125.846H44.5434V119.071Z" fill="black"/>
<path d="M51.3187 119.071H44.5434V125.846H51.3187V119.071Z" fill="black"/>
<path d="M58.0939 119.071H51.3187V125.846H58.0939V119.071Z" fill="black"/>
<path d="M64.8691 119.071H58.0939V125.846H64.8691V119.071Z" fill="black"/>
<path d="M71.6443 119.071H64.8691V125.846H71.6443V119.071Z" fill="black"/>
<path d="M85.1948 119.071H78.4195V125.846H85.1948V119.071Z" fill="black"/>
<path d="M91.97 119.071H85.1948V125.846H91.97V119.071Z" fill="black"/>
<path d="M112.296 119.071H105.52V125.846H112.296V119.071Z" fill="black"/>
<path d="M119.071 119.071H112.296V125.846H119.071V119.071Z" fill="black"/>
<path d="M125.846 119.071H119.071V125.846H125.846V119.071Z" fill="black"/>
<path d="M152.947 119.071H146.172V125.846H152.947V119.071Z" fill="black"/>
<path d="M30.993 125.846H24.2178V132.621H30.993V125.846Z" fill="black"/>
<path d="M71.6443 125.846H64.8691V132.621H71.6443V125.846Z" fill="black"/>
<path d="M91.97 125.846H85.1948L85.1948 132.621H91.97V125.846Z" fill="black"/>
<path d="M112.296 125.846H105.52V132.621H112.296V125.846Z" fill="black"/>
<path d="M119.071 125.846H112.296V132.621H119.071V125.846Z" fill="black"/>
<path d="M132.621 125.846H125.846V132.621H132.621V125.846Z" fill="black"/>
<path d="M139.397 125.846H132.621V132.621H139.397V125.846Z" fill="black"/>
<path d="M166.497 125.846H159.722V132.621H166.497V125.846Z" fill="black"/>
<path d="M30.993 132.621H24.2178V139.397H30.993V132.621Z" fill="black"/>
<path d="M44.5434 132.621H37.7682V139.397H44.5434V132.621Z" fill="black"/>
<path d="M51.3187 132.621H44.5434V139.397H51.3187V132.621Z" fill="black"/>
<path d="M58.0939 132.621H51.3187V139.397H58.0939V132.621Z" fill="black"/>
<path d="M71.6443 132.621H64.8691V139.397H71.6443V132.621Z" fill="black"/>
<path d="M112.296 132.621H105.52V139.397H112.296V132.621Z" fill="black"/>
<path d="M119.071 132.621H112.296V139.397H119.071V132.621Z" fill="black"/>
<path d="M132.621 132.621H125.846V139.397H132.621V132.621Z" fill="black"/>
<path d="M146.172 132.621H139.397V139.397H146.172V132.621Z" fill="black"/>
<path d="M152.947 132.621H146.172V139.397H152.947V132.621Z" fill="black"/>
<path d="M30.993 139.397H24.2178V146.172H30.993V139.397Z" fill="black"/>
<path d="M44.5434 139.397H37.7682V146.172H44.5434V139.397Z" fill="black"/>
<path d="M51.3187 139.397H44.5434V146.172H51.3187V139.397Z" fill="black"/>
<path d="M58.0939 139.397H51.3187V146.172H58.0939V139.397Z" fill="black"/>
<path d="M71.6443 139.397H64.8691V146.172H71.6443V139.397Z" fill="black"/>
<path d="M85.1948 139.397H78.4195V146.172H85.1948V139.397Z" fill="black"/>
<path d="M98.7452 139.397H91.97V146.172H98.7452V139.397Z" fill="black"/>
<path d="M105.52 139.397H98.7452V146.172H105.52V139.397Z" fill="black"/>
<path d="M132.621 139.397H125.846V146.172H132.621V139.397Z" fill="black"/>
<path d="M30.993 146.172H24.2178V152.947H30.993V146.172Z" fill="black"/>
<path d="M44.5434 146.172H37.7682V152.947H44.5434V146.172Z" fill="black"/>
<path d="M51.3187 146.172H44.5434V152.947H51.3187V146.172Z" fill="black"/>
<path d="M58.0939 146.172H51.3187V152.947H58.0939V146.172Z" fill="black"/>
<path d="M71.6443 146.172H64.8691V152.947H71.6443V146.172Z" fill="black"/>
<path d="M85.1948 146.172H78.4195V152.947H85.1948V146.172Z" fill="black"/>
<path d="M91.97 146.172H85.1948V152.947H91.97L91.97 146.172Z" fill="black"/>
<path d="M98.7452 146.172H91.97L91.97 152.947H98.7452V146.172Z" fill="black"/>
<path d="M105.52 146.172H98.7452V152.947H105.52V146.172Z" fill="black"/>
<path d="M125.846 146.172H119.071V152.947H125.846V146.172Z" fill="black"/>
<path d="M132.621 146.172H125.846V152.947H132.621V146.172Z" fill="black"/>
<path d="M152.947 146.172H146.172V152.947H152.947V146.172Z" fill="black"/>
<path d="M159.722 146.172H152.947V152.947H159.722V146.172Z" fill="black"/>
<path d="M30.993 152.947H24.2178V159.722H30.993V152.947Z" fill="black"/>
<path d="M71.6443 152.947H64.8691V159.722H71.6443V152.947Z" fill="black"/>
<path d="M85.1948 152.947H78.4195V159.722H85.1948V152.947Z" fill="black"/>
<path d="M98.7452 152.947H91.97L91.97 159.722H98.7452V152.947Z" fill="black"/>
<path d="M119.071 152.947H112.296V159.722H119.071V152.947Z" fill="black"/>
<path d="M125.846 152.947H119.071V159.722H125.846V152.947Z" fill="black"/>
<path d="M152.947 152.947H146.172V159.722H152.947V152.947Z" fill="black"/>
<path d="M166.497 152.947H159.722V159.722H166.497V152.947Z" fill="black"/>
<path d="M30.993 159.722H24.2178V166.497H30.993V159.722Z" fill="black"/>
<path d="M37.7682 159.722H30.993V166.497H37.7682V159.722Z" fill="black"/>
<path d="M44.5434 159.722H37.7682V166.497H44.5434V159.722Z" fill="black"/>
<path d="M51.3187 159.722H44.5434V166.497H51.3187V159.722Z" fill="black"/>
<path d="M58.0939 159.722H51.3187V166.497H58.0939V159.722Z" fill="black"/>
<path d="M64.8691 159.722H58.0939V166.497H64.8691V159.722Z" fill="black"/>
<path d="M71.6443 159.722H64.8691V166.497H71.6443V159.722Z" fill="black"/>
<path d="M112.296 159.722H105.52V166.497H112.296V159.722Z" fill="black"/>
<path d="M119.071 159.722H112.296V166.497H119.071V159.722Z" fill="black"/>
<path d="M132.621 159.722H125.846V166.497H132.621V159.722Z" fill="black"/>
<path d="M139.397 159.722H132.621V166.497H139.397V159.722Z" fill="black"/>
<path d="M152.947 159.722H146.172V166.497H152.947V159.722Z" fill="black"/>
</g>
<defs>
<clipPath id="clip0_839_2135">
<rect width="190.715" height="190.715" fill="white"/>
</clipPath>
</defs>
</svg>
