<svg width="51" height="50" viewBox="0 0 51 50" fill="none" xmlns="http://www.w3.org/2000/svg">
<rect x="1" y="0.5" width="49" height="49" rx="9.5" stroke="#FFAD45"/>
<path d="M4.6665 22.9167C9.52421 17.8289 16.4232 17.5893 21.3332 22.9167M18.1979 9.37508C18.1979 12.2516 15.8628 14.5834 12.9822 14.5834C10.1016 14.5834 7.76644 12.2516 7.76644 9.37508C7.76644 6.4986 10.1016 4.16675 12.9822 4.16675C15.8628 4.16675 18.1979 6.4986 18.1979 9.37508Z" stroke="#FFAD45" stroke-width="4" stroke-linecap="round"/>
<path d="M29.6665 45.8335C34.5242 40.7456 41.4232 40.5061 46.3332 45.8335M43.1979 32.2918C43.1979 35.1683 40.8628 37.5002 37.9822 37.5002C35.1016 37.5002 32.7664 35.1683 32.7664 32.2918C32.7664 29.4153 35.1016 27.0835 37.9822 27.0835C40.8628 27.0835 43.1979 29.4153 43.1979 32.2918Z" stroke="#FFAD45" stroke-width="4" stroke-linecap="round"/>
<path d="M6.75 29.1668C6.75 37.2293 13.2708 43.7501 21.3333 43.7501L19.25 39.5835" stroke="#FFAD45" stroke-width="4" stroke-linecap="round" stroke-linejoin="round"/>
<path d="M31.75 6.25H44.25M31.75 12.5H44.25M31.75 18.75H39.0417" stroke="#FFAD45" stroke-width="4" stroke-linecap="round" stroke-linejoin="round"/>
</svg>
